# xmcd CD database file
# Copyright (C) 1997 Ti Kan
#
# Track frame offsets:
#  150
#  30265
#  47263
#  68808
#  84135
#  95703
#  103183
#  124450
#  139408
#  158513
#  175753
#  184628
#  192508
#  198038
#  205478
#  214685
#  226578
#  237423
#  245875
#  254928
#  263093
#  270070
#  276363
#  284173
#  292015
#  300673
#
# Disc length: 4219 seconds
#
# Revision: 1
# Processed by: cddbd v1.4b41PL1 Copyright (c) Steve Scherf et al.
# Submitted via: CDWizzard Release:4.35
#
DISCID=8510791a
DTITLE=Maria Muldaur - John Fahey - Gospel Night - Yes! Jesus Loves Me
DYEAR=1900
DGENRE=
TTITLE0=My Sisters and Brothers
TTITLE1=My Jesus Is All
TTITLE2=Trial, Troubles, Tribulations
TTITLE3=Bright Morning Star
TTITLE4=Daniel Prayed
TTITLE5=Nobody's Fault But Mine
TTITLE6=As An Eagle Stireth Her Nest
TTITLE7=Did You remember to Pray
TTITLE8=Traveling Shoes
TTITLE9=People Get Ready
TTITLE10=Guide Me, O Thou Great Jehovah
TTITLE11=Yes! Jesus Loves Me
TTITLE12=Stand Up, Stand Up For Jesus
TTITLE13=Lord of all Hopefullness
TTITLE14=All Through the Night
TTITLE15=Oh Come, Oh Come Emmanuel
TTITLE16=Two American Folk Hymns
TTITLE17=St. Patrick's
TTITLE18=Holy, Holy, Holy
TTITLE19=St. Clement's
TTITLE20=For All the Saints
TTITLE21=At the Name of Jesus
TTITLE22=Come Thou Almighty King - Wild Western Hero
TTITLE23=Praise to the Lord
TTITLE24=Lord, I Want to Be a Christian in My Heart
TTITLE25=Let All Mortal Flesh Keep Silence
EXTD=The liner notes are incorrect  for this Plus-One" reissue of these t
EXTD=wo Takoma LP's.  25 tracks are listed.  The notes state track 14 is
EXTD=a medley of two songs, but 2 different CD players, CD Wizzard and Co
EXTD=rel's CD Audio recognize the second song as track 15, making 26 tota
EXTD=l tracks.
EXTT0=
EXTT1=
EXTT2=
EXTT3=
EXTT4=
EXTT5=
EXTT6=
EXTT7=
EXTT8=
EXTT9=
EXTT10=
EXTT11=
EXTT12=
EXTT13=
EXTT14=
EXTT15=
EXTT16=
EXTT17=
EXTT18=
EXTT19=
EXTT20=
EXTT21=
EXTT22=
EXTT23=
EXTT24=
EXTT25=
PLAYORDER=
